<?xml version="1.0" standalone="no"?>
<!DOCTYPE svg PUBLIC "-//W3C//DTD SVG 20010904//EN"
 "http://www.w3.org/TR/2001/REC-SVG-20010904/DTD/svg10.dtd">
<svg version="1.0" xmlns="http://www.w3.org/2000/svg"
 width="240.000000pt" height="240.000000pt" viewBox="0 0 240.000000 240.000000"
 preserveAspectRatio="xMidYMid meet">
<metadata>
Created by potrace 1.14, written by Peter Selinger 2001-2017
</metadata>
<g transform="translate(0.000000,240.000000) scale(0.100000,-0.100000)"
fill="#000000" stroke="none">
<path d="M0 2370 l0 -30 303 2 302 3 3 28 3 27 -305 0 -306 0 0 -30z"/>
<path d="M655 2268 l2 -23 302 -3 302 -2 -3 22 -3 23 -301 3 -301 2 2 -22z"/>
<path d="M1408 2263 c79 -2 205 -2 280 0 75 1 11 3 -143 3 -154 0 -216 -2
-137 -3z"/>
<path d="M710 2203 c263 -7 500 -7 500 0 0 4 -136 6 -302 5 -167 -1 -256 -4
-198 -5z"/>
<path d="M753 2153 c75 -2 199 -2 275 0 75 1 13 3 -138 3 -151 0 -213 -2 -137
-3z"/>
<path d="M1795 2151 c-16 -3 -25 -9 -20 -11 19 -9 625 1 625 11 0 10 -556 11
-605 0z"/>
<path d="M1463 2073 c-191 -2 -303 -7 -303 -13 0 -6 110 -10 300 -10 191 0
300 4 300 10 0 6 119 11 323 13 l322 2 -320 0 c-176 0 -456 -1 -622 -2z"/>
<path d="M1815 2050 c-4 -7 95 -10 289 -10 191 0 296 4 296 10 0 6 -103 10
-289 10 -183 0 -292 -4 -296 -10z"/>
<path d="M0 1950 c0 -6 108 -10 305 -10 197 0 305 4 305 10 0 6 -108 10 -305
10 -197 0 -305 -4 -305 -10z"/>
<path d="M1215 1930 c4 -6 115 -10 301 -10 189 0 294 4 294 10 0 6 -107 10
-301 10 -197 0 -298 -3 -294 -10z"/>
<path d="M1260 1895 c0 -13 -40 -15 -300 -15 -258 0 -301 -2 -306 -15 -4 -8
-15 -15 -26 -15 -18 0 -19 -4 -14 -35 l7 -35 -313 -2 -313 -3 315 -5 c173 -3
298 -6 278 -8 -33 -2 -38 -5 -38 -27 0 -16 6 -25 15 -25 8 0 15 -9 15 -20 0
-11 5 -20 10 -20 14 0 12 -27 -2 -33 -7 -3 256 -6 585 -6 519 -1 600 1 613 14
9 8 11 15 5 15 -6 0 -11 11 -11 25 0 16 -6 25 -15 25 -9 0 -15 9 -15 25 0 14
1 26 3 26 1 1 148 5 327 9 l325 6 -291 2 -292 2 -4 25 -5 25 293 0 c189 0 294
4 294 10 0 6 -97 10 -270 10 -290 0 -277 -2 -271 48 2 9 -64 12 -299 12 -260
0 -300 -2 -300 -15z"/>
<path d="M294 1513 c219 -3 304 -7 315 -16 14 -11 14 -10 2 6 -12 16 -38 17
-315 15 l-301 -3 299 -2z"/>
<path d="M1860 1481 c0 -5 -10 -12 -22 -14 -13 -2 109 -5 270 -6 253 -1 292 1
292 14 0 13 -37 15 -270 15 -160 0 -270 -4 -270 -9z"/>
<path d="M247 1443 l-247 -3 0 -110 0 -110 275 0 275 0 0 -45 0 -45 36 0 c36
0 36 -1 30 -31 -3 -17 -6 -35 -6 -40 0 -5 -137 -9 -305 -9 l-305 0 0 -50 0
-50 305 0 c197 0 305 -4 305 -10 0 -5 9 -10 20 -10 13 0 20 -7 20 -20 0 -13
-7 -20 -20 -20 -11 0 -20 -4 -20 -10 0 -6 -111 -11 -307 -12 l-308 -3 305 -2
c182 -2 308 -7 314 -13 7 -7 -97 -10 -302 -10 -205 0 -312 -3 -312 -10 0 -7
104 -10 306 -10 169 1 309 -1 312 -4 3 -4 -11 -6 -31 -6 -20 0 -39 -4 -42 -10
-4 -6 -107 -10 -276 -10 l-269 0 0 -45 0 -45 295 0 c256 0 295 -2 295 -15 0
-13 -39 -15 -295 -15 -190 0 -295 -4 -295 -10 0 -6 105 -10 294 -10 l293 0 7
-37 c3 -21 6 -44 6 -50 0 -10 -71 -13 -302 -16 l-303 -2 303 -3 302 -2 0 -40
0 -40 -300 0 -300 0 0 -175 0 -175 325 0 c210 0 325 -4 325 -10 0 -5 -9 -10
-20 -10 -11 0 -20 -7 -20 -15 0 -13 37 -15 275 -15 177 0 275 -4 275 -10 0 -6
107 -10 300 -10 293 0 300 0 300 -20 0 -20 7 -20 320 -20 l320 0 0 125 0 125
-306 0 c-274 -1 -346 3 -307 17 8 3 13 23 13 49 l0 44 300 0 c193 0 300 4 300
10 0 6 -107 10 -302 10 -166 0 -298 3 -295 6 4 4 139 6 302 5 294 -2 295 -2
295 19 0 21 0 21 -292 19 -161 -1 -294 1 -295 4 -7 19 0 24 30 25 17 0 150 0
295 1 l262 1 0 75 0 75 -297 -3 -298 -2 -3 53 -3 52 300 0 301 0 0 115 0 115
-289 0 c-254 0 -290 2 -295 16 -9 22 -8 22 17 26 30 4 38 48 7 48 -26 0 -36
24 -22 56 l12 24 285 0 285 0 0 120 0 120 -271 0 -270 0 3 -22 c2 -18 -3 -24
-20 -26 -20 -3 -22 -8 -17 -32 l6 -29 -318 -5 c-175 -3 -447 -8 -605 -11 -159
-4 -288 -5 -289 -3 -12 75 -10 88 10 88 12 0 21 6 21 15 0 8 -9 15 -20 15 -11
0 -21 5 -21 10 -1 6 -2 15 -3 22 0 6 -7 13 -15 16 -10 3 -12 0 -8 -12 4 -10 3
-15 -3 -11 -6 3 -10 -1 -10 -9 0 -10 6 -13 18 -10 14 5 14 4 2 -4 -21 -15 -33
-4 -25 25 4 16 2 22 -5 18 -6 -4 -10 5 -10 23 0 29 -17 45 -43 40 -7 -2 -123
-4 -260 -5z m780 -1200 c-81 -2 -213 -2 -295 0 -81 1 -14 3 148 3 162 0 229
-2 147 -3z m121 -40 c3 -10 -52 -13 -251 -13 -257 0 -347 6 -347 22 0 4 131 7
297 6 226 -2 297 -6 301 -15z"/>
<path d="M573 33 c9 -2 25 -2 35 0 9 3 1 5 -18 5 -19 0 -27 -2 -17 -5z"/>
<path d="M630 30 c0 -5 -16 -10 -36 -10 -19 0 -33 -4 -29 -9 7 -13 582 -14
590 -1 3 6 23 11 43 11 l37 2 -45 8 c-68 12 -560 11 -560 -1z"/>
</g>
</svg>
